<svg width="28" height="26" viewBox="0 0 28 26" fill="none" xmlns="http://www.w3.org/2000/svg">
<path d="M9.32054 3.66683C9.32475 3.66677 9.32886 3.66617 9.33307 3.66617H15.8501L14.3417 2.15772C13.886 1.7021 13.886 0.963351 14.3417 0.507731C14.7973 0.0521105 15.536 0.0521105 15.9917 0.507731L19.4918 4.00787C19.519 4.03506 19.5447 4.06366 19.5691 4.09335C19.5801 4.10681 19.5897 4.12103 19.6001 4.13486C19.6126 4.15149 19.6255 4.16773 19.637 4.18501C19.6481 4.20159 19.6577 4.21881 19.6678 4.23582C19.6772 4.25146 19.687 4.26678 19.6957 4.28291C19.7049 4.30025 19.7128 4.31808 19.7211 4.33574C19.729 4.35258 19.7375 4.36915 19.7446 4.38638C19.7517 4.40355 19.7575 4.42111 19.7637 4.4385C19.7704 4.45699 19.7774 4.47525 19.7832 4.49418C19.7884 4.51157 19.7923 4.52929 19.7967 4.5469C19.8016 4.5662 19.807 4.58523 19.8109 4.60492C19.815 4.62527 19.8174 4.64583 19.8203 4.66628C19.8227 4.68346 19.8259 4.7003 19.8277 4.71769C19.8314 4.75559 19.8334 4.7936 19.8334 4.83167C19.8334 4.83205 19.8335 4.83243 19.8335 4.83281C19.8335 4.83325 19.8334 4.83364 19.8334 4.83407C19.8334 4.87208 19.8314 4.91009 19.8277 4.94794C19.826 4.96533 19.8227 4.98223 19.8203 4.9994C19.8173 5.01991 19.815 5.04042 19.8109 5.06076C19.807 5.08045 19.8016 5.09948 19.7967 5.11879C19.7923 5.1364 19.7885 5.15406 19.7832 5.17145C19.7774 5.19038 19.7703 5.20864 19.7637 5.22718C19.7575 5.24457 19.7517 5.26207 19.7447 5.27919C19.7375 5.29647 19.7291 5.31305 19.7212 5.32989C19.7129 5.34755 19.705 5.36538 19.6957 5.38267C19.6871 5.3988 19.6772 5.41417 19.6678 5.42981C19.6577 5.44676 19.6481 5.46399 19.637 5.48056C19.6254 5.4979 19.6125 5.51419 19.6 5.53082C19.5897 5.5446 19.5801 5.55882 19.5691 5.57222C19.5447 5.60197 19.519 5.63057 19.4918 5.65775L15.9917 9.1579C15.536 9.61352 14.7973 9.61352 14.3417 9.1579C13.886 8.70228 13.886 7.96353 14.3417 7.50791L15.8501 5.99946H9.34291C9.33979 5.99946 9.33678 5.99995 9.33367 5.99995C5.46284 5.99995 2.33338 9.12941 2.33338 13.0002C2.33338 14.6993 3.01197 16.298 4.19945 17.4865C4.65491 17.9423 4.65458 18.681 4.19874 19.1365C3.7429 19.5919 3.00421 19.5916 2.54875 19.1358C0.929277 17.5149 -6.67572e-05 15.3255 -6.67572e-05 13.0002C-6.67572e-05 7.84523 4.16707 3.67394 9.32054 3.66683Z" fill="#0071FF"/>
<path d="M8.39974 21.8648C8.38733 21.8482 8.37448 21.832 8.36294 21.8148C8.35184 21.7981 8.34221 21.7809 8.33204 21.7638C8.32269 21.7482 8.3129 21.7329 8.30431 21.7169C8.29501 21.6995 8.28714 21.6816 8.27877 21.6638C8.27084 21.6471 8.26247 21.6306 8.25536 21.6134C8.24825 21.5962 8.24246 21.5786 8.23622 21.5611C8.2296 21.5426 8.22255 21.5245 8.21686 21.5057C8.21156 21.4882 8.20767 21.4703 8.20324 21.4527C8.19838 21.4335 8.19302 21.4145 8.18913 21.395C8.18509 21.3745 8.18268 21.3538 8.17967 21.3332C8.17727 21.3162 8.17398 21.2994 8.17229 21.2822C8.16474 21.2056 8.16474 21.1285 8.17229 21.0519C8.17398 21.0346 8.17721 21.0179 8.17967 21.0009C8.18263 20.9803 8.18503 20.9596 8.18908 20.9391C8.19296 20.9195 8.19832 20.9005 8.20319 20.8813C8.20762 20.8637 8.2115 20.8459 8.21681 20.8284C8.2225 20.8095 8.2296 20.7914 8.23622 20.7729C8.24251 20.7554 8.24825 20.7378 8.25536 20.7206C8.26247 20.7034 8.27084 20.687 8.27877 20.6702C8.28714 20.6524 8.29501 20.6345 8.30437 20.6171C8.31295 20.6011 8.32274 20.5858 8.33204 20.5702C8.34221 20.5532 8.35189 20.5359 8.36299 20.5193C8.37453 20.502 8.38733 20.4859 8.39969 20.4693C8.41014 20.4554 8.41982 20.4411 8.43092 20.4276C8.45493 20.3983 8.4803 20.3701 8.50705 20.3433C8.50743 20.3429 8.50781 20.3425 8.50819 20.3421L12.0083 16.8419C12.464 16.3863 13.2027 16.3863 13.6583 16.8419C14.1139 17.2976 14.1139 18.0363 13.6583 18.4919L12.1499 20.0004H18.657C18.6601 20.0004 18.6631 19.9999 18.6663 19.9999C22.5371 19.9999 25.6666 16.8704 25.6666 12.9996C25.6666 11.3005 24.988 9.70186 23.8005 8.51334C23.345 8.0575 23.3454 7.31881 23.8012 6.86335C24.257 6.4079 24.9957 6.40822 25.4512 6.86406C27.0707 8.48479 28 10.6742 28 12.9995C28 18.1547 23.8329 22.3259 18.6794 22.3331C18.6752 22.3331 18.6711 22.3337 18.6669 22.3337H12.1499L13.6583 23.8422C14.1139 24.2978 14.1139 25.0365 13.6583 25.4922C13.2027 25.9478 12.464 25.9478 12.0083 25.4922L8.50819 21.992C8.50797 21.9918 8.50781 21.9916 8.50759 21.9914C8.48069 21.9644 8.45514 21.936 8.43092 21.9065C8.41976 21.8929 8.41014 21.8787 8.39974 21.8648Z" fill="#0071FF"/>
</svg>
