<svg width="38" height="38" viewBox="0 0 38 38" fill="none" xmlns="http://www.w3.org/2000/svg">
<path d="M19 38C29.4934 38 38 29.4934 38 19C38 8.50659 29.4934 0 19 0C8.50659 0 0 8.50659 0 19C0 29.4934 8.50659 38 19 38Z" fill="#0071FF"/>
<path d="M20.5745 7.2249C16.689 6.73327 12.9437 8.0704 10.2932 10.9228C7.64742 13.7751 6.5858 17.6321 7.38142 21.5081C8.3053 25.9969 11.7775 29.5499 16.2283 30.5616C17.1593 30.7754 18.0903 30.8799 19.0094 30.8799C20.8358 30.8799 22.617 30.4643 24.2653 29.6473C24.8519 29.3551 25.0918 28.6426 24.802 28.0536C24.5075 27.4646 23.7998 27.2295 23.2084 27.5169C21.2253 28.5025 18.9928 28.7543 16.7555 28.246C13.2643 27.4528 10.4333 24.5505 9.70892 21.0308C9.06767 17.9148 9.91792 14.8201 12.034 12.5378C14.1525 10.2578 17.1522 9.1819 20.2705 9.5809C24.9635 10.1889 28.4999 14.4496 28.4999 19.4965V20.1876C28.4999 21.4986 27.4359 22.5626 26.1249 22.5626C24.8139 22.5626 23.7499 21.4986 23.7499 20.1876V15.4376C23.7499 14.7821 23.2179 14.2501 22.5624 14.2501C22.0755 14.2501 21.6599 14.5446 21.477 14.9626C20.7693 14.5161 19.938 14.2501 18.9999 14.2501C16.2022 14.2501 14.2499 16.447 14.2499 19.5939C14.2499 22.7408 16.2022 24.9376 18.9999 24.9376C20.4748 24.9376 21.7027 24.3154 22.5458 23.2751C23.4174 24.2845 24.6904 24.9376 26.1249 24.9376C28.7445 24.9376 30.8749 22.8073 30.8749 20.1876V19.4965C30.8749 13.2598 26.4479 7.9849 20.5745 7.2249ZM18.9999 22.5626C17.5345 22.5626 16.6249 21.425 16.6249 19.5939C16.6249 17.7628 17.5345 16.6251 18.9999 16.6251C20.4653 16.6251 21.3749 17.7628 21.3749 19.5939C21.3749 21.425 20.4653 22.5626 18.9999 22.5626Z" fill="white"/>
</svg>
