<svg width="39" height="39" viewBox="0 0 39 39" fill="none" xmlns="http://www.w3.org/2000/svg">
<path d="M19.0835 38.1669C29.623 38.1669 38.1669 29.623 38.1669 19.0835C38.1669 8.54396 29.623 0 19.0835 0C8.54396 0 0 8.54396 0 19.0835C0 29.623 8.54396 38.1669 19.0835 38.1669Z" fill="#0071FF"/>
<path d="M28.6253 23.0291C26.5667 23.0291 24.6035 22.5806 22.7929 21.6956C22.5091 21.5596 22.1799 21.5382 21.8793 21.6408C21.5787 21.7457 21.333 21.9652 21.1947 22.249L20.3359 24.0262C17.7597 22.5472 15.6223 20.4075 14.141 17.8312L15.9205 16.9725C16.2067 16.8341 16.4238 16.5884 16.5288 16.2878C16.6313 15.9873 16.6123 15.6581 16.4739 15.3742C15.5865 13.5661 15.1381 11.6029 15.1381 9.54184C15.1381 8.88346 14.6037 8.34912 13.9453 8.34912H9.54184C8.88346 8.34912 8.34912 8.88346 8.34912 9.54184C8.34912 20.7224 17.4448 29.818 28.6253 29.818C29.2837 29.818 29.818 29.2837 29.818 28.6253V24.2218C29.818 23.5634 29.2837 23.0291 28.6253 23.0291Z" fill="white"/>
</svg>
