<svg width="27" height="27" viewBox="0 0 27 27" fill="none" xmlns="http://www.w3.org/2000/svg">
<path d="M24.7757 0H16.4698C15.2433 0 14.2454 0.997844 14.2454 2.22412V10.53C14.2454 11.7565 15.2433 12.7543 16.4698 12.7543H24.7757C26.0021 12.7543 27 11.7565 27 10.53V2.22412C27 0.997844 26.0022 0 24.7757 0ZM23.9906 6.79905H17.2546V5.95529H23.9906V6.79905Z" fill="white"/>
<path d="M10.53 14.2456H2.22412C0.997844 14.2456 0 15.2435 0 16.4697V24.7758C0 26.0023 0.997844 27.0001 2.22412 27.0001H10.53C11.7565 27.0001 12.7543 26.0023 12.7543 24.7758V16.4697C12.7543 15.2435 11.7565 14.2456 10.53 14.2456ZM9.74513 22.7495H3.00916V21.9057H9.74518V22.7495H9.74513ZM9.74513 19.3397H3.00916V18.4959H9.74518V19.3397H9.74513Z" fill="white"/>
<path d="M10.53 0H2.22412C0.997844 0 0 0.997844 0 2.22412V10.53C0 11.7565 0.997844 12.7543 2.22412 12.7543H10.53C11.7565 12.7543 12.7543 11.7565 12.7543 10.53V2.22412C12.7543 0.997844 11.7565 0 10.53 0ZM9.74513 6.79905H6.799V9.74518H5.95524V6.79905H3.00916V5.95529H5.95529V3.00922H6.79906V5.95535H9.74518V6.79905H9.74513Z" fill="white"/>
<path d="M24.7757 14.2456H16.4698C15.2433 14.2456 14.2454 15.2434 14.2454 16.4697V24.7758C14.2454 26.0023 15.2433 27.0001 16.4698 27.0001H24.7757C26.0021 27.0001 27 26.0023 27 24.7758V16.4697C27 15.2435 26.0022 14.2456 24.7757 14.2456ZM23.3024 22.706L22.7058 23.3026L20.6226 21.2194L18.5394 23.3026L17.9429 22.706L20.0261 20.6228L17.9429 18.5396L18.5394 17.943L20.6226 20.0262L22.7058 17.943L23.3024 18.5396L21.2192 20.6228L23.3024 22.706Z" fill="white"/>
</svg>
