<svg width="159" height="33" viewBox="0 0 159 33" fill="none" xmlns="http://www.w3.org/2000/svg">
<path d="M16.3094 30.7323C24.4887 30.7323 31.1194 24.1016 31.1194 15.9223C31.1194 7.74297 24.4887 1.1123 16.3094 1.1123C8.13005 1.1123 1.49939 7.74297 1.49939 15.9223C1.49939 24.1016 8.13005 30.7323 16.3094 30.7323Z" stroke="#0071FF" stroke-width="2.1167" stroke-miterlimit="22.9256"/>
<path d="M15.1351 7.76758H18.2888C20.1349 7.76758 21.3737 8.34648 22.0133 9.50838C22.4343 10.063 22.6449 10.8322 22.6449 11.8119V12.6661H20.1753V11.4071C20.0013 10.6257 19.6126 10.2331 19.0013 10.2331H14.5076C13.868 10.2331 13.4469 10.561 13.2486 11.2168C13.2283 11.3747 13.2162 11.5245 13.2162 11.6702V13.2005L10.7831 12.071V11.4435C10.7831 9.89298 11.6049 8.74318 13.2486 7.99018C13.6696 7.84048 14.2971 7.76758 15.1351 7.76758ZM10.7831 12.6661L20.317 17.2449C21.1429 17.7104 21.7299 18.1881 22.0862 18.682C22.4424 19.18 22.6206 19.9046 22.6206 20.8601C22.6206 22.6535 21.7664 23.8963 20.0579 24.5846C19.726 24.702 19.3697 24.7627 18.9892 24.7627H14.4145C12.864 24.7627 11.7142 23.9247 10.9612 22.2487C10.8438 21.8438 10.7831 21.4714 10.7831 21.1313V19.9249H13.204V20.9086C13.204 21.605 13.5198 22.0665 14.1514 22.2972C14.3092 22.3256 15.8476 22.3418 18.7665 22.3418C19.3819 22.3418 19.815 22.0908 20.0579 21.5847C20.1227 21.3863 20.1551 21.2528 20.1551 21.1799V20.3743C20.0418 19.9613 19.2361 19.4107 17.7342 18.7144L10.7831 15.3219V12.6661Z" fill="#0071FF"/>
<path d="M15.1351 7.76758H18.2888C20.1349 7.76758 21.3737 8.34648 22.0133 9.50838C22.4343 10.063 22.6449 10.8322 22.6449 11.8119V12.6661H20.1753V11.4071C20.0013 10.6257 19.6126 10.2331 19.0013 10.2331H14.5076C13.868 10.2331 13.4469 10.561 13.2486 11.2168C13.2283 11.3747 13.2162 11.5245 13.2162 11.6702V13.2005L10.7831 12.071V11.4435C10.7831 9.89298 11.6049 8.74318 13.2486 7.99018C13.6696 7.84048 14.2971 7.76758 15.1351 7.76758V7.76758ZM10.7831 12.6661L20.317 17.2449C21.1429 17.7104 21.7299 18.1881 22.0862 18.682C22.4424 19.18 22.6206 19.9046 22.6206 20.8601C22.6206 22.6535 21.7664 23.8963 20.0579 24.5846C19.726 24.702 19.3697 24.7627 18.9892 24.7627H14.4145C12.864 24.7627 11.7142 23.9247 10.9612 22.2487C10.8438 21.8438 10.7831 21.4714 10.7831 21.1313V19.9249H13.204V20.9086C13.204 21.605 13.5198 22.0665 14.1514 22.2972C14.3092 22.3256 15.8476 22.3418 18.7665 22.3418C19.3819 22.3418 19.815 22.0908 20.0579 21.5847C20.1227 21.3863 20.1551 21.2528 20.1551 21.1799V20.3743C20.0418 19.9613 19.2361 19.4107 17.7342 18.7144L10.7831 15.3219V12.6661V12.6661Z" stroke="#0071FF" stroke-width="0.0762" stroke-miterlimit="22.9256"/>
<path d="M33.1591 31.9759C34.04 31.9759 34.754 31.2619 34.754 30.381C34.754 29.5002 34.04 28.7861 33.1591 28.7861C32.2783 28.7861 31.5642 29.5002 31.5642 30.381C31.5642 31.2619 32.2783 31.9759 33.1591 31.9759Z" fill="#0071FF" stroke="#0071FF" stroke-width="0.0762" stroke-miterlimit="22.9256"/>
<path d="M49.6206 23.1438H52.6908V11.9067H57.6471V8.85669H44.6242V11.9067H49.6206V23.1438Z" fill="#FEFEFE"/>
<path d="M62.6035 17.1239V11.8666H65.9545C67.6401 11.8666 69.0046 13.0906 69.0046 14.4953C69.0046 15.8999 67.7203 17.1239 66.0348 17.1239H62.6035ZM59.5133 23.1438H62.6035V20.1339H66.095C66.115 20.1339 66.2756 20.1339 66.2956 20.1138L68.4026 23.1438H72.175L69.4059 19.1707C70.9911 18.1674 72.0948 16.4818 72.0948 14.4953C72.0948 11.3047 69.3056 8.85669 66.0749 8.85669H59.5133V23.1438Z" fill="#FEFEFE"/>
<path d="M72.9175 23.1438H76.2686L76.9709 21.4984H84.295L85.0375 23.1438H88.3885L82.0878 8.85669H79.1982L72.9175 23.1438ZM78.215 18.5486L80.643 12.7094L83.071 18.5486H78.215Z" fill="#FEFEFE"/>
<path d="M89.7731 23.1438H92.8633V13.6124L99.8062 23.1438H103.097V8.85669H100.007V18.4082L93.084 8.85669H89.7731V23.1438Z" fill="#FEFEFE"/>
<path d="M104.943 21.0771C107.512 22.863 109.879 23.6255 111.906 23.6255C115.418 23.6255 117.765 21.5787 117.765 19.231C117.765 13.9134 108.274 14.5154 108.274 12.6894C108.274 12.0674 109.177 11.4453 110.642 11.4453C111.926 11.4453 113.592 11.9269 115.518 13.1509L117.244 10.5423C114.836 8.99724 112.669 8.37524 110.823 8.37524C107.532 8.37524 105.184 10.3216 105.184 12.8098C105.184 17.8063 114.655 16.9033 114.655 19.2913C114.655 19.9132 113.652 20.5353 112.027 20.5353C110.642 20.5353 108.936 19.9935 106.809 18.4885L104.943 21.0771Z" fill="#FEFEFE"/>
<path d="M119.752 23.1438H122.842V8.85669H119.752V23.1438Z" fill="#FEFEFE"/>
<path d="M129.725 23.1438H132.795V11.9067H137.751V8.85669H124.728V11.9067H129.725V23.1438Z" fill="#FEFEFE"/>
<path d="M137.952 17.5655H144.333V14.5957H137.952V17.5655Z" fill="#FEFEFE"/>
<path d="M145.778 21.0771C148.346 22.863 150.714 23.6255 152.741 23.6255C156.252 23.6255 158.6 21.5787 158.6 19.231C158.6 13.9134 149.109 14.5154 149.109 12.6894C149.109 12.0674 150.012 11.4453 151.477 11.4453C152.761 11.4453 154.426 11.9269 156.353 13.1509L158.078 10.5423C155.67 8.99724 153.503 8.37524 151.657 8.37524C148.366 8.37524 146.019 10.3216 146.019 12.8098C146.019 17.8063 155.49 16.9033 155.49 19.2913C155.49 19.9132 154.487 20.5353 152.861 20.5353C151.477 20.5353 149.771 19.9935 147.644 18.4885L145.778 21.0771Z" fill="#FEFEFE"/>
</svg>
