<svg width="5" height="9" viewBox="0 0 5 9" fill="none" xmlns="http://www.w3.org/2000/svg">
<path d="M0.130925 3.78366L3.78352 0.131124C3.868 0.0465775 3.98078 0 4.10102 0C4.22127 0 4.33405 0.0465775 4.41853 0.131124L4.68751 0.400046C4.86255 0.575279 4.86255 0.860083 4.68751 1.03505L1.62034 4.10222L4.69092 7.1728C4.7754 7.25735 4.82204 7.37006 4.82204 7.49024C4.82204 7.61055 4.7754 7.72326 4.69092 7.80787L4.42193 8.07673C4.33738 8.16128 4.22468 8.20785 4.10443 8.20785C3.98418 8.20785 3.87141 8.16128 3.78693 8.07673L0.130925 4.42086C0.0462448 4.33605 -0.000265885 4.22281 1.14344e-06 4.10243C-0.000265885 3.98158 0.0462448 3.8684 0.130925 3.78366Z" fill="white"/>
</svg>
