<svg width="5" height="9" viewBox="0 0 5 9" fill="none" xmlns="http://www.w3.org/2000/svg">
<path d="M4.69112 3.78366L1.03852 0.131124C0.954038 0.0465775 0.841265 0 0.721017 0C0.60077 0 0.487996 0.0465775 0.403516 0.131124L0.134528 0.400046C-0.040505 0.575279 -0.040505 0.860083 0.134528 1.03505L3.2017 4.10222L0.131124 7.1728C0.0466443 7.25735 0 7.37006 0 7.49024C0 7.61055 0.0466443 7.72326 0.131124 7.80787L0.400113 8.07673C0.48466 8.16128 0.597367 8.20785 0.717614 8.20785C0.837862 8.20785 0.950635 8.16128 1.03512 8.07673L4.69112 4.42086C4.7758 4.33605 4.82231 4.22281 4.82204 4.10243C4.82231 3.98158 4.7758 3.8684 4.69112 3.78366Z" fill="#0071FF"/>
</svg>
