<svg width="80" height="80" viewBox="0 0 80 80" fill="none" xmlns="http://www.w3.org/2000/svg">
<path d="M59.9749 26.85C58.7435 25.5515 56.6905 25.4943 55.39 26.7289L34.6852 46.3646L24.8096 36.2251C23.5588 34.9418 21.508 34.9137 20.2236 36.1646C18.9403 37.4143 18.9133 39.4673 20.163 40.7506L32.2711 53.182C32.9057 53.8339 33.7489 54.1625 34.5944 54.1625C35.3966 54.1625 36.1988 53.8662 36.8269 53.2728L59.8539 31.435C61.1533 30.2025 61.2083 28.1495 59.9749 26.85Z" fill="#0071FF"/>
<path d="M40 0C17.9437 0 0 17.9437 0 40C0 62.0563 17.9437 80 40 80C62.0563 80 80 62.0563 80 40C80 17.9437 62.0563 0 40 0ZM40 73.5136C21.5211 73.5136 6.48641 58.4802 6.48641 40C6.48641 21.5211 21.5209 6.48641 40 6.48641C58.48 6.48641 73.5136 21.5209 73.5136 40C73.5136 58.48 58.48 73.5136 40 73.5136Z" fill="#0071FF"/>
</svg>
