<svg width="4" height="4" viewBox="0 0 4 4" fill="none" xmlns="http://www.w3.org/2000/svg">
<path d="M1.01027 3.5502C0.950273 3.5102 0.920273 3.4502 0.920273 3.3702C0.920273 3.3302 0.933607 3.2902 0.960273 3.2502C0.960273 3.24353 0.980273 3.2202 1.02027 3.1802L1.74027 2.5202L0.760273 2.4102L0.680273 2.3902C0.62694 2.37686 0.58694 2.3402 0.560273 2.2802C0.540273 2.24686 0.530273 2.2102 0.530273 2.1702C0.530273 2.1502 0.533607 2.1302 0.540273 2.1102L0.720273 1.5802C0.733607 1.52686 0.770273 1.48686 0.830273 1.4602C0.863607 1.4402 0.900273 1.4302 0.940273 1.4302C0.953607 1.4302 0.970273 1.43353 0.990273 1.4402L1.07027 1.4802L1.93027 1.9702L1.73027 1.0002L1.72027 0.920195C1.72027 0.866862 1.74027 0.816862 1.78027 0.770195C1.82694 0.723529 1.88027 0.700195 1.94027 0.700195H2.49027C2.55027 0.700195 2.60027 0.723529 2.64027 0.770195C2.68694 0.816862 2.71027 0.866862 2.71027 0.920195L2.70027 1.0002L2.50027 1.9702L3.37027 1.4802L3.45027 1.4402C3.46361 1.43353 3.48027 1.4302 3.50027 1.4302C3.55361 1.4302 3.60027 1.44353 3.64027 1.47019C3.68694 1.49686 3.71361 1.53353 3.72027 1.5802L3.90027 2.1102L3.91027 2.1702C3.91027 2.21686 3.89361 2.26353 3.86027 2.3102C3.83361 2.3502 3.79694 2.37686 3.75027 2.3902L3.68027 2.4102L2.69027 2.5202L3.42027 3.1802C3.46027 3.2202 3.48027 3.24353 3.48027 3.2502C3.50694 3.2902 3.52027 3.3302 3.52027 3.3702C3.52027 3.4502 3.49027 3.5102 3.43027 3.5502L2.99027 3.8802C2.95027 3.9002 2.90694 3.9102 2.86027 3.9102C2.77361 3.9102 2.71361 3.88353 2.68027 3.8302C2.68027 3.82353 2.67694 3.81686 2.67027 3.8102C2.66361 3.80353 2.65361 3.78686 2.64027 3.7602L2.22027 2.85019L1.80027 3.7602C1.78694 3.78686 1.77694 3.80353 1.77027 3.8102C1.76361 3.81686 1.76027 3.82353 1.76027 3.8302C1.72694 3.88353 1.66694 3.9102 1.58027 3.9102C1.53361 3.9102 1.49027 3.9002 1.45027 3.8802L1.01027 3.5502Z" fill="#0071FF"/>
</svg>
