<svg width="76" height="76" viewBox="0 0 76 76" fill="none" xmlns="http://www.w3.org/2000/svg">
<path d="M74.25 6.75V74.25H24.25V69.25H69.25V16.75L59.25 6.75H74.25Z" fill="#78B9EB"/>
<path d="M1.75 25.5H64.25V50.5H1.75V25.5Z" fill="#78B9EB"/>
<path d="M74.25 5.5H59.7675L55.1338 0.86625C54.8994 0.631813 54.5815 0.500071 54.25 0.5H19.25C18.9185 0.5 18.6005 0.631696 18.3661 0.866116C18.1317 1.10054 18 1.41848 18 1.75V24.25H1.75C1.41848 24.25 1.10054 24.3817 0.866116 24.6161C0.631696 24.8505 0.5 25.1685 0.5 25.5V50.5C0.5 50.8315 0.631696 51.1495 0.866116 51.3839C1.10054 51.6183 1.41848 51.75 1.75 51.75H18V69.25C18 69.5815 18.1317 69.8995 18.3661 70.1339C18.6005 70.3683 18.9185 70.5 19.25 70.5H23V74.25C23 74.5815 23.1317 74.8995 23.3661 75.1339C23.6005 75.3683 23.9185 75.5 24.25 75.5H74.25C74.5815 75.5 74.8995 75.3683 75.1339 75.1339C75.3683 74.8995 75.5 74.5815 75.5 74.25V6.75C75.5 6.41848 75.3683 6.10054 75.1339 5.86612C74.8995 5.6317 74.5815 5.5 74.25 5.5ZM55.5 4.7675L66.2325 15.5H56.75C56.4185 15.5 56.1005 15.3683 55.8661 15.1339C55.6317 14.8995 55.5 14.5815 55.5 14.25V4.7675ZM3 26.75H63V49.25H3V26.75ZM20.5 51.75H64.25C64.5815 51.75 64.8995 51.6183 65.1339 51.3839C65.3683 51.1495 65.5 50.8315 65.5 50.5V25.5C65.5 25.1685 65.3683 24.8505 65.1339 24.6161C64.8995 24.3817 64.5815 24.25 64.25 24.25H20.5V3H53V14.25C53 15.2446 53.3951 16.1984 54.0984 16.9017C54.8016 17.6049 55.7554 18 56.75 18H68V68H20.5V51.75ZM73 73H25.5V70.5H69.25C69.5815 70.5 69.8995 70.3683 70.1339 70.1339C70.3683 69.8995 70.5 69.5815 70.5 69.25V16.75C70.4999 16.4185 70.3682 16.1006 70.1338 15.8663L62.2675 8H73V73Z" fill="#006DF0"/>
<path d="M35.5 29.25H28C27.6685 29.25 27.3505 29.3817 27.1161 29.6161C26.8817 29.8505 26.75 30.1685 26.75 30.5V45.5C26.75 45.8315 26.8817 46.1495 27.1161 46.3839C27.3505 46.6183 27.6685 46.75 28 46.75H35.5C36.4946 46.75 37.4484 46.3549 38.1516 45.6516C38.8549 44.9484 39.25 43.9946 39.25 43V33C39.25 32.0054 38.8549 31.0516 38.1516 30.3483C37.4484 29.6451 36.4946 29.25 35.5 29.25ZM36.75 43C36.75 43.3315 36.6183 43.6495 36.3839 43.8839C36.1495 44.1183 35.8315 44.25 35.5 44.25H29.25V31.75H35.5C35.8315 31.75 36.1495 31.8817 36.3839 32.1161C36.6183 32.3505 36.75 32.6685 36.75 33V43Z" fill="#006DF0"/>
<path d="M23 29.25H13C12.6685 29.25 12.3505 29.3817 12.1161 29.6161C11.8817 29.8505 11.75 30.1685 11.75 30.5V46.75H14.25V39.25H23C23.3315 39.25 23.6495 39.1183 23.8839 38.8839C24.1183 38.6495 24.25 38.3315 24.25 38V30.5C24.25 30.1685 24.1183 29.8505 23.8839 29.6161C23.6495 29.3817 23.3315 29.25 23 29.25ZM21.75 36.75H14.25V31.75H21.75V36.75Z" fill="#006DF0"/>
<path d="M41.75 30.5V46.75H44.25V39.25H51.75V36.75H44.25V31.75H54.25V29.25H43C42.6685 29.25 42.3505 29.3817 42.1161 29.6161C41.8817 29.8505 41.75 30.1685 41.75 30.5Z" fill="#006DF0"/>
</svg>
