<svg width="20" height="18" viewBox="0 0 20 18" fill="none" xmlns="http://www.w3.org/2000/svg">
<path d="M9.00007 18C4.03779 18 0 13.9624 0 9.00007C0 4.03779 4.03779 0 9.00007 0C10.7256 0 12.4044 0.49169 13.8551 1.42278C14.1399 1.60616 14.2233 1.98578 14.04 2.27133C13.856 2.55688 13.4771 2.63942 13.1916 2.4562C11.9397 1.65185 10.49 1.22728 9.00007 1.22728C4.71435 1.22728 1.22728 4.71435 1.22728 9.00007C1.22728 13.2857 4.71435 16.7727 9.00007 16.7727C13.2857 16.7727 16.7727 13.2857 16.7727 9.00007C16.7727 8.74389 16.7604 8.49026 16.7368 8.24082C16.7041 7.90284 16.9512 7.60336 17.2882 7.5707C17.627 7.53954 17.9255 7.78508 17.9584 8.12216C17.9861 8.41101 18 8.70389 18 9.00007C18 13.9624 13.9624 18 9.00007 18Z" fill="white"/>
<path d="M10.3231 11C10.1651 11 10.0069 10.9416 9.88674 10.8241L6.18095 7.22398C5.93968 6.98945 5.93968 6.60946 6.18095 6.37508C6.42221 6.1407 6.81336 6.1407 7.05462 6.37508L10.324 9.55123L18.9452 1.17579C19.1866 0.941405 19.5778 0.941405 19.8191 1.17579C20.0603 1.41017 20.0603 1.79016 19.8191 2.02454L10.7604 10.8248C10.6393 10.9416 10.4813 11 10.3231 11Z" fill="white"/>
</svg>
